<svg width="13" height="15" viewBox="0 0 13 15" fill="none" xmlns="http://www.w3.org/2000/svg">
<path d="M3.79089 6.30891C3.92645 7.19005 4.60734 8.3115 5.72571 8.70585C6.18476 8.86606 6.68695 8.86914 7.14601 8.70277C8.24589 8.30534 8.94834 7.18697 9.08698 6.30891C9.23486 6.29658 9.42896 6.09016 9.63846 5.34766C9.92499 4.33404 9.61998 4.18308 9.36118 4.20772C9.41048 4.06908 9.44745 3.92736 9.47209 3.7918C9.90958 1.16378 8.6156 1.07444 8.6156 1.07444C8.6156 1.07444 8.39994 0.661595 7.83613 0.350423C7.45718 0.125516 6.93034 -0.0470148 6.23714 0.0115225C6.01223 0.0207652 5.79965 0.0669789 5.59939 0.131678C5.34367 0.217944 5.10952 0.344261 4.89694 0.492145C4.63814 0.655433 4.39167 0.858773 4.17601 1.08984C3.83403 1.44107 3.52902 1.89396 3.39654 2.45777C3.28562 2.87985 3.31027 3.32042 3.4027 3.79488C3.42735 3.93352 3.46432 4.07216 3.51361 4.2108C3.25482 4.18616 2.9498 4.33712 3.23633 5.35074C3.44891 6.09016 3.64301 6.29658 3.79089 6.30891Z" fill="#6D728E"/>
<path d="M11.5209 9.75644C9.94658 9.35593 8.668 8.4563 8.668 8.4563L7.66978 11.6142L7.48185 12.2088L7.47877 12.1996L7.31548 12.7049L6.78864 11.2106C8.08262 9.40522 6.52676 9.4237 6.4405 9.42679C6.35423 9.4237 4.79837 9.40522 6.09236 11.2106L5.56552 12.7049L5.40223 12.1996L5.39915 12.2088L5.21122 11.6142L4.20992 8.4563C4.20992 8.4563 2.93134 9.35593 1.357 9.75644C0.183168 10.0553 0.127712 11.4109 0.173925 12.0795C0.173925 12.0795 0.241706 12.9883 0.309486 13.3888C0.309486 13.3888 2.60168 14.8769 6.4405 14.88C10.2793 14.88 12.5715 13.3888 12.5715 13.3888C12.6393 12.9883 12.7071 12.0795 12.7071 12.0795C12.7502 11.4109 12.6947 10.0553 11.5209 9.75644Z" fill="#6D728E"/>
</svg>
