<svg width="15" height="15" viewBox="0 0 15 15" fill="none" xmlns="http://www.w3.org/2000/svg">
<g clip-path="url(#clip0_250_3937)">
<path d="M10.6562 3.25685H13.1345L10.5261 0.694946V3.12692C10.5261 3.19852 10.5844 3.25685 10.6562 3.25685Z" fill="#6D728E"/>
<path d="M10.6562 4.07426C10.1339 4.07426 9.70882 3.6493 9.70882 3.12694V0.457764H2.91263C2.07174 0.457764 1.3877 1.14181 1.3877 1.98269V12.8828C1.3877 13.7237 2.07174 14.4078 2.91263 14.4078H11.851C12.692 14.4078 13.376 13.7237 13.376 12.8828V4.07426H10.6562ZM9.72202 11.0292H4.45799C4.23227 11.0292 4.0493 10.8463 4.0493 10.6206C4.0493 10.3948 4.23227 10.2119 4.45799 10.2119H9.72202C9.94782 10.2119 10.1307 10.3948 10.1307 10.6206C10.1307 10.8463 9.94782 11.0292 9.72202 11.0292ZM4.0493 8.98579C4.0493 8.76007 4.23227 8.5771 4.45799 8.5771H9.15539C9.38119 8.5771 9.56408 8.76007 9.56408 8.98579C9.56408 9.21151 9.38102 9.39448 9.15539 9.39448H4.45799C4.23227 9.39448 4.0493 9.21151 4.0493 8.98579ZM10.219 7.75972H4.45799C4.23227 7.75972 4.0493 7.57674 4.0493 7.35103C4.0493 7.12531 4.23227 6.94233 4.45799 6.94233H10.219C10.4447 6.94233 10.6277 7.12531 10.6277 7.35103C10.6277 7.57674 10.4447 7.75972 10.219 7.75972Z" fill="#6D728E"/>
</g>
<defs>
<clipPath id="clip0_250_3937">
<rect width="14.88" height="14.88" fill="white"/>
</clipPath>
</defs>
</svg>
