<svg width="14" height="16" viewBox="0 0 14 16" fill="none" xmlns="http://www.w3.org/2000/svg">
<path d="M6.66211 8.28687C8.78825 8.28687 10.5263 6.54884 10.5263 4.4227C10.5263 2.29655 8.78825 0.558533 6.66211 0.558533C4.53596 0.558533 2.79797 2.29655 2.79797 4.4227C2.79797 6.54884 4.53599 8.28687 6.66211 8.28687Z" fill="#6D728E"/>
<path d="M13.2935 11.3748C13.1923 11.1217 13.0573 10.8855 12.9055 10.6661C12.1292 9.51864 10.9312 8.75932 9.58127 8.5737C9.41255 8.55684 9.22693 8.59056 9.09193 8.69181C8.38321 9.21491 7.53953 9.48489 6.66205 9.48489C5.78458 9.48489 4.94089 9.21491 4.23218 8.69181C4.09717 8.59056 3.91156 8.53995 3.74283 8.5737C2.3929 8.75932 1.17798 9.51864 0.418656 10.6661C0.26679 10.8855 0.131785 11.1386 0.0305628 11.3748C-0.0200482 11.4761 -0.00318863 11.5942 0.0474223 11.6954C0.182428 11.9317 0.351153 12.1679 0.503018 12.3704C0.739245 12.691 0.992365 12.9779 1.27924 13.2478C1.51546 13.4841 1.78544 13.7034 2.05545 13.9228C3.38849 14.9184 4.99154 15.4415 6.64519 15.4415C8.29885 15.4415 9.9019 14.9184 11.2349 13.9228C11.5049 13.7203 11.7749 13.4841 12.0112 13.2478C12.2811 12.9779 12.5511 12.691 12.7874 12.3704C12.9561 12.151 13.108 11.9317 13.243 11.6954C13.3273 11.5942 13.3442 11.476 13.2935 11.3748Z" fill="#6D728E"/>
</svg>
